<svg version="1.1" id="Layer_1" xmlns="http://www.w3.org/2000/svg" xmlns:xlink="http://www.w3.org/1999/xlink" x="0px" y="0px"
	 width="100%" viewBox="0 0 512 512" enable-background="new 0 0 512 512" xml:space="preserve">
<path fill="#FF5551" opacity="1.000000" stroke="none" 
	d="
M513.000000,225.000000 
	C513.000000,246.020889 513.000000,267.041779 512.615479,288.295410 
	C511.823578,289.369598 511.192352,290.173645 511.044403,291.058472 
	C509.972504,297.469818 509.279144,303.956421 507.945068,310.309875 
	C501.663177,340.226715 490.601013,368.291046 473.888885,393.906494 
	C467.259705,404.067352 459.352966,413.394684 452.013947,422.693817 
	C452.490997,417.885529 454.120880,413.248962 453.266937,409.126984 
	C450.293121,394.771973 437.884888,388.364655 423.665436,392.030121 
	C417.587891,393.596832 410.568542,394.477478 404.617737,393.032227 
	C383.771729,387.969574 374.191101,366.464294 383.425140,347.075256 
	C394.373260,324.087128 405.402008,301.136993 416.487976,278.214966 
	C434.314941,241.354858 452.215027,204.530121 470.089661,167.693085 
	C474.352325,158.908432 474.206085,157.873932 467.627289,151.314743 
	C473.505341,135.713654 473.057007,130.361099 465.577240,126.839111 
	C459.652008,124.049095 453.405548,126.714760 449.344849,133.419907 
	C448.454865,132.113708 447.758698,131.071106 446.930634,129.693176 
	C438.918671,123.371078 431.382355,125.007927 427.003296,133.711304 
	C425.828857,136.045578 424.838898,138.472702 423.374695,140.898529 
	C415.323151,138.984665 413.312439,139.928909 409.799164,147.155975 
	C409.007629,148.784286 408.249115,150.428680 407.090607,152.042480 
	C398.498230,149.781174 392.439362,151.426498 388.436951,157.156021 
	C387.113007,159.051300 386.120514,161.178146 384.671753,163.016754 
	C382.902405,159.111710 380.236481,155.410294 380.170166,151.662872 
	C379.770599,129.073730 380.037628,106.473740 379.938599,83.878014 
	C379.871155,68.483978 369.204437,57.971237 353.843872,57.918762 
	C348.527740,57.900604 343.211334,57.962791 337.432556,58.001194 
	C326.154297,57.996933 315.338501,57.979763 304.147034,57.852699 
	C300.287964,57.541565 296.804504,57.164738 293.321136,57.165356 
	C238.871048,57.175003 184.420975,57.252808 129.970886,57.264267 
	C118.992302,57.266575 108.013672,57.060001 97.128479,56.622250 
	C114.479874,42.567165 133.069824,31.069235 153.318588,22.230074 
	C175.609543,12.499437 198.696747,5.795732 222.878220,2.919370 
	C223.650650,2.827488 224.295609,1.663955 225.000000,0.999999 
	C246.020889,1.000000 267.041779,1.000000 288.291077,1.387475 
	C289.198425,2.173722 289.832153,2.783049 290.563080,2.940117 
	C304.676239,5.972845 318.958252,8.364390 332.883392,12.091336 
	C350.518555,16.811232 367.075012,24.383450 382.987274,33.417877 
	C399.249237,42.650848 414.716034,53.094734 428.165588,65.982727 
	C440.070953,77.390976 451.277222,89.670067 461.683441,102.466301 
	C475.196838,119.083374 485.632568,137.805847 493.728973,157.623245 
	C502.352448,178.730652 508.963470,200.483643 511.098389,223.369980 
	C511.154083,223.967255 512.340759,224.459030 513.000000,225.000000 
z"/>
<path fill="#E20B62" opacity="1.000000" stroke="none" 
	d="
M449.538696,133.683487 
	C453.405548,126.714760 459.652008,124.049095 465.577240,126.839111 
	C473.057007,130.361099 473.505341,135.713654 467.627289,151.314743 
	C474.206085,157.873932 474.352325,158.908432 470.089661,167.693085 
	C452.215027,204.530121 434.314941,241.354858 416.487976,278.214966 
	C405.402008,301.136993 394.373260,324.087128 383.425140,347.075256 
	C374.191101,366.464294 383.771729,387.969574 404.617737,393.032227 
	C410.568542,394.477478 417.587891,393.596832 423.665436,392.030121 
	C437.884888,388.364655 450.293121,394.771973 453.266937,409.126984 
	C454.120880,413.248962 452.490997,417.885529 452.001678,422.654633 
	C452.003357,423.023132 452.078796,422.990356 451.838501,423.121277 
	C451.401520,423.557373 451.204834,423.862518 451.003113,424.511688 
	C438.969391,436.407715 427.645416,448.827332 414.744904,459.306030 
	C395.931244,474.587830 374.901001,486.567505 352.188629,495.382141 
	C332.509857,503.019440 312.340546,508.685516 291.309418,511.080780 
	C290.477539,511.175507 289.767059,512.336060 289.000000,513.000000 
	C267.979095,513.000000 246.958206,513.000000 225.617554,512.593384 
	C224.622498,511.799225 223.985718,511.179962 223.265915,511.060364 
	C216.818787,509.989075 210.297165,509.290588 203.909821,507.947906 
	C173.974060,501.654938 145.686096,490.968384 120.251862,473.874298 
	C107.262520,465.144318 95.373375,454.777313 83.445259,445.041290 
	C154.040543,444.948273 224.177490,444.971588 294.314453,444.947357 
	C296.590515,444.946564 298.866394,444.460602 301.455902,444.202148 
	C302.185547,444.167206 302.601654,444.130951 303.185211,444.223419 
	C303.891388,444.278900 304.430115,444.205688 305.437347,444.181274 
	C315.216675,444.205505 324.538849,444.461823 333.835541,444.086853 
	C346.024048,443.595215 356.741943,433.503693 356.971558,421.462036 
	C357.389801,399.527344 357.032135,377.577850 357.047302,355.297180 
	C363.559113,341.529480 370.059448,328.117065 376.472351,314.662933 
	C381.310455,304.512756 386.036713,294.309265 391.097900,283.910950 
	C395.108917,276.078064 398.881104,268.485992 402.552002,260.845245 
	C413.207031,238.667358 423.821472,216.469940 434.674133,194.021683 
	C437.032288,189.222519 439.168152,184.681839 441.561584,179.920258 
	C443.115173,176.929062 444.411224,174.158768 445.837830,171.097397 
	C446.692017,169.322311 447.421814,167.841248 448.138367,166.353821 
	C451.932434,158.478058 451.481018,156.551437 444.821381,150.991425 
	C447.347534,145.210892 451.463074,140.252930 449.538696,133.683487 
z"/>
<path fill="#000000" opacity="1.000000" stroke="none" 
	d="
M289.468658,513.000000 
	C289.767059,512.336060 290.477539,511.175507 291.309418,511.080780 
	C312.340546,508.685516 332.509857,503.019440 352.188629,495.382141 
	C374.901001,486.567505 395.931244,474.587830 414.744904,459.306030 
	C427.645416,448.827332 438.969391,436.407715 451.262146,424.397064 
	C451.710388,423.622375 451.894592,423.306366 452.078796,422.990356 
	C452.078796,422.990356 452.003357,423.023132 452.015625,423.062317 
	C459.352966,413.394684 467.259705,404.067352 473.888885,393.906494 
	C490.601013,368.291046 501.663177,340.226715 507.945068,310.309875 
	C509.279144,303.956421 509.972504,297.469818 511.044403,291.058472 
	C511.192352,290.173645 511.823578,289.369598 512.615479,288.764069 
	C513.000000,363.593719 513.000000,438.187408 513.000000,513.000000 
	C438.645905,513.000000 364.291626,513.000000 289.468658,513.000000 
z"/>
<path fill="#000000" opacity="1.000000" stroke="none" 
	d="
M513.000000,224.531342 
	C512.340759,224.459030 511.154083,223.967255 511.098389,223.369980 
	C508.963470,200.483643 502.352448,178.730652 493.728973,157.623245 
	C485.632568,137.805847 475.196838,119.083374 461.683441,102.466301 
	C451.277222,89.670067 440.070953,77.390976 428.165588,65.982727 
	C414.716034,53.094734 399.249237,42.650848 382.987274,33.417877 
	C367.075012,24.383450 350.518555,16.811232 332.883392,12.091336 
	C318.958252,8.364390 304.676239,5.972845 290.563080,2.940117 
	C289.832153,2.783049 289.198425,2.173722 288.759705,1.387475 
	C363.593719,1.000000 438.187408,1.000000 513.000000,1.000000 
	C513.000000,75.354088 513.000000,149.708389 513.000000,224.531342 
z"/>
<path fill="#000000" opacity="1.000000" stroke="none" 
	d="
M82.986938,445.150269 
	C95.373375,454.777313 107.262520,465.144318 120.251862,473.874298 
	C145.686096,490.968384 173.974060,501.654938 203.909821,507.947906 
	C210.297165,509.290588 216.818787,509.989075 223.265915,511.060364 
	C223.985718,511.179962 224.622498,511.799225 225.148895,512.593384 
	C150.406296,513.000000 75.812599,513.000000 1.000000,513.000000 
	C1.000000,438.645905 1.000000,364.291626 1.400647,289.288391 
	C3.254516,296.439728 4.707739,304.240051 6.094570,312.418213 
	C6.739483,314.817017 7.450788,316.837891 8.100855,319.257965 
	C12.437959,336.637909 18.391367,353.053223 25.480106,368.939484 
	C21.192055,368.995758 17.360668,368.902283 13.537045,369.033997 
	C9.694357,369.166443 6.042902,372.422546 6.022581,375.498047 
	C5.999913,378.928558 9.455853,381.966919 13.549905,381.978577 
	C18.039831,381.991364 22.530092,381.887054 27.433697,381.908569 
	C29.526499,382.008850 31.205812,382.034332 32.908329,382.524139 
	C32.931534,403.644226 32.931534,424.299927 32.931534,445.150269 
	C50.134102,445.150269 66.560524,445.150269 82.986938,445.150269 
z"/>
<path fill="#000000" opacity="1.000000" stroke="none" 
	d="
M224.531342,0.999999 
	C224.295609,1.663955 223.650650,2.827488 222.878220,2.919370 
	C198.696747,5.795732 175.609543,12.499437 153.318588,22.230074 
	C133.069824,31.069235 114.479874,42.567165 96.881058,56.699646 
	C96.373665,57.150723 96.207123,57.196918 95.579193,57.135529 
	C74.523903,57.027946 53.930019,57.027946 32.962578,57.027946 
	C32.962578,77.971298 32.962578,98.422783 32.549343,118.925270 
	C30.752951,119.039375 29.369793,119.102463 27.524738,119.095665 
	C22.251707,119.019699 17.439178,119.083229 12.629844,118.987030 
	C8.235397,118.899124 6.161304,121.727898 6.211412,125.322670 
	C6.258861,128.726562 8.317637,131.302551 12.608188,131.057007 
	C17.733871,130.763687 22.883821,130.894409 28.437565,130.915955 
	C30.245760,131.078247 31.639652,131.166061 33.059387,131.577332 
	C33.088837,132.117111 33.092434,132.333420 32.848446,132.753723 
	C31.793955,134.161728 30.771019,135.273788 30.213276,136.583893 
	C24.074745,151.002869 18.008615,165.452667 11.551682,179.950409 
	C5.378501,182.953049 4.727432,186.679459 9.043833,191.956940 
	C6.948858,202.152344 5.015795,211.956482 2.939750,221.730240 
	C2.690323,222.904510 1.665455,223.914093 1.000000,225.000000 
	C1.000000,150.406296 1.000000,75.812576 1.000000,1.000000 
	C75.354088,1.000000 149.708389,1.000000 224.531342,0.999999 
z"/>
<path fill="#DF0F64" opacity="1.000000" stroke="none" 
	d="
M1.000000,225.468658 
	C1.665455,223.914093 2.690323,222.904510 2.939750,221.730240 
	C5.015795,211.956482 6.948858,202.152344 9.490471,192.079483 
	C16.692900,191.815308 23.329962,191.829041 30.323082,191.928009 
	C31.642633,192.103104 32.606129,192.192947 33.580200,192.732880 
	C33.682106,211.287445 33.773434,229.391922 33.474518,247.517654 
	C32.052956,247.673264 31.021635,247.807602 29.596550,247.824768 
	C23.901321,247.551682 18.593544,247.169891 13.300570,247.317810 
	C9.660248,247.419525 6.813370,249.160843 6.935713,253.415482 
	C7.056217,257.606262 9.671892,259.154694 13.544461,259.099915 
	C19.018829,259.022430 24.492975,258.929016 30.322853,258.927917 
	C31.642113,259.103271 32.605736,259.193146 33.580040,259.733093 
	C33.595371,276.322754 33.600029,292.462402 33.247669,308.677490 
	C31.916431,308.870453 30.942211,308.987885 29.507725,309.020935 
	C21.333578,309.344025 13.126682,306.116150 6.160962,312.040344 
	C4.707739,304.240051 3.254516,296.439728 1.400647,288.819702 
	C1.000000,267.979095 1.000000,246.958206 1.000000,225.468658 
z"/>
<path fill="#6EE1FF" opacity="1.000000" stroke="none" 
	d="
M96.040588,57.243111 
	C96.207123,57.196918 96.373665,57.150723 96.787643,57.027130 
	C108.013672,57.060001 118.992302,57.266575 129.970886,57.264267 
	C184.420975,57.252808 238.871048,57.175003 293.321136,57.165356 
	C296.804504,57.164738 300.287964,57.541565 304.465332,58.070946 
	C312.160736,60.952347 317.277924,65.693558 321.055267,72.432037 
	C321.739288,76.719925 322.923950,80.621773 322.929474,84.525299 
	C323.039276,162.142731 323.010895,239.760376 323.021332,317.377960 
	C323.021698,320.040375 323.133484,322.702789 323.132751,325.707336 
	C321.415222,329.716919 319.758270,333.384338 317.839966,337.286255 
	C315.063568,343.293854 312.548523,349.067047 309.977783,355.316589 
	C309.973877,368.374542 310.025696,380.956085 310.079895,393.887329 
	C309.759583,394.821594 309.436951,395.406158 308.639038,396.014771 
	C257.501862,396.045654 206.840012,396.067902 156.178162,396.051453 
	C136.801224,396.045166 124.026703,383.192505 124.011787,363.726562 
	C123.988937,333.896088 124.326874,304.060883 123.891335,274.236786 
	C123.607201,254.780014 139.169693,241.285355 156.044632,241.658737 
	C185.860458,242.318436 215.701508,241.849976 245.531952,241.817734 
	C247.852341,241.815216 250.204529,241.723785 252.487076,241.343933 
	C262.156403,239.734848 266.552155,231.632065 263.085205,221.621765 
	C263.424957,219.248001 264.005615,217.295624 264.012390,215.341248 
	C264.096771,191.048004 264.138824,166.754410 264.098938,142.461044 
	C264.083954,133.351807 259.050568,128.314850 249.814316,128.238480 
	C235.671707,128.121536 221.527405,128.222443 207.383881,128.200195 
	C179.598892,128.156494 151.813934,128.091690 124.021797,127.564758 
	C124.011467,105.930717 123.861320,84.765747 124.117371,63.605686 
	C124.175163,58.830181 122.587372,57.671963 118.133278,57.852760 
	C110.817070,58.149738 103.476860,57.855465 96.121849,57.668961 
	C96.096924,57.527420 96.040588,57.243111 96.040588,57.243111 
z"/>
<path fill="#2D98FE" opacity="1.000000" stroke="none" 
	d="
M321.006866,72.046783 
	C317.277924,65.693558 312.160736,60.952347 304.841003,58.180836 
	C315.338501,57.979763 326.154297,57.996933 337.726440,58.207275 
	C351.357788,62.998158 357.207123,71.257553 357.224274,85.133133 
	C357.279907,130.175613 357.290955,175.218155 357.201996,220.592148 
	C354.123169,227.415436 351.161530,233.907257 347.722992,241.444382 
	C351.621857,241.104401 354.355255,240.866028 357.140198,241.121445 
	C357.234161,246.172073 357.276581,250.728928 357.206940,255.678009 
	C355.724457,259.366577 354.353973,262.662933 352.654175,266.084686 
	C347.678528,275.510437 343.032166,284.810730 338.371521,293.635986 
	C338.340820,233.042404 338.325806,172.923904 338.306183,112.805397 
	C338.303772,105.478127 338.457642,98.144913 338.217163,90.825020 
	C337.883362,80.661873 331.179596,73.512619 321.006866,72.046783 
z"/>
<path fill="#DF0D64" opacity="1.000000" stroke="none" 
	d="
M357.319183,220.260666 
	C357.290955,175.218155 357.279907,130.175613 357.224274,85.133133 
	C357.207123,71.257553 351.357788,62.998158 338.188934,58.194366 
	C343.211334,57.962791 348.527740,57.900604 353.843872,57.918762 
	C369.204437,57.971237 379.871155,68.483978 379.938599,83.878014 
	C380.037628,106.473740 379.770599,129.073730 380.170166,151.662872 
	C380.236481,155.410294 382.902405,159.111710 384.635498,163.355499 
	C375.709076,182.671295 366.514130,201.465988 357.319183,220.260666 
z"/>
<path fill="#1D396C" opacity="1.000000" stroke="none" 
	d="
M357.201996,220.592148 
	C366.514130,201.465988 375.709076,182.671295 384.940247,163.537872 
	C386.120514,161.178146 387.113007,159.051300 388.436951,157.156021 
	C392.439362,151.426498 398.498230,149.781174 407.318787,152.329956 
	C409.539429,153.490555 411.127563,154.380295 412.758026,155.184036 
	C423.736115,160.595703 434.723145,165.989136 445.707306,171.388474 
	C444.411224,174.158768 443.115173,176.929062 441.215759,179.782333 
	C427.918091,173.896057 415.223755,167.926788 402.230835,161.750366 
	C396.989624,160.776047 395.761963,164.418137 394.192932,168.204636 
	C383.636780,189.906860 373.343140,211.328598 362.855988,232.655197 
	C361.429321,235.556473 359.034973,237.981918 357.088684,240.627670 
	C354.355255,240.866028 351.621857,241.104401 347.722992,241.444382 
	C351.161530,233.907257 354.123169,227.415436 357.201996,220.592148 
z"/>
<path fill="#2A95FC" opacity="1.000000" stroke="none" 
	d="
M445.837830,171.097397 
	C434.723145,165.989136 423.736115,160.595703 412.758026,155.184036 
	C411.127563,154.380295 409.539429,153.490555 407.703552,152.353134 
	C408.249115,150.428680 409.007629,148.784286 409.799164,147.155975 
	C413.312439,139.928909 415.323151,138.984665 423.578796,141.192963 
	C427.417389,143.001877 430.662292,144.557709 434.139893,146.364532 
	C437.791443,148.189911 441.210358,149.764297 444.629242,151.338684 
	C451.481018,156.551437 451.932434,158.478058 448.138367,166.353821 
	C447.421814,167.841248 446.692017,169.322311 445.837830,171.097397 
z"/>
<path fill="#09CCFD" opacity="1.000000" stroke="none" 
	d="
M433.907227,146.113556 
	C430.662292,144.557709 427.417389,143.001877 423.968353,141.151627 
	C424.838898,138.472702 425.828857,136.045578 427.003296,133.711304 
	C431.382355,125.007927 438.918671,123.371078 446.664856,129.913208 
	C443.732025,132.866867 440.565247,134.960297 438.247192,137.757156 
	C436.289581,140.119141 435.316193,143.296860 433.907227,146.113556 
z"/>
<path fill="#6EDDFD" opacity="1.000000" stroke="none" 
	d="
M434.139893,146.364532 
	C435.316193,143.296860 436.289581,140.119141 438.247192,137.757156 
	C440.565247,134.960297 443.732025,132.866867 446.796753,130.248535 
	C447.758698,131.071106 448.454865,132.113708 449.344849,133.419907 
	C451.463074,140.252930 447.347534,145.210892 444.821381,150.991425 
	C441.210358,149.764297 437.791443,148.189911 434.139893,146.364532 
z"/>
<path fill="#06CDFF" opacity="1.000000" stroke="none" 
	d="
M263.059448,222.042206 
	C266.552155,231.632065 262.156403,239.734848 252.487076,241.343933 
	C250.204529,241.723785 247.852341,241.815216 245.531952,241.817734 
	C215.701508,241.849976 185.860458,242.318436 156.044632,241.658737 
	C139.169693,241.285355 123.607201,254.780014 123.891335,274.236786 
	C124.326874,304.060883 123.988937,333.896088 124.011787,363.726562 
	C124.026703,383.192505 136.801224,396.045166 156.178162,396.051453 
	C206.840012,396.067902 257.501862,396.045654 308.605774,396.383942 
	C307.882050,399.277618 306.478088,401.752228 305.653534,404.406799 
	C305.257233,405.682678 305.954926,407.298431 306.157196,408.760254 
	C307.577515,408.060669 309.618591,407.732574 310.301422,406.591614 
	C312.323090,403.213593 313.808624,399.514709 315.826080,395.964020 
	C316.794037,395.989441 317.439728,395.992126 318.390717,395.971619 
	C320.003174,395.088531 321.310394,394.228638 322.648132,393.814087 
	C322.791260,401.700012 323.226318,409.154907 322.896515,416.575806 
	C322.695740,421.094299 321.315674,425.560364 320.307861,430.319763 
	C316.917755,437.155640 311.432404,441.029419 304.511139,443.464966 
	C303.853149,443.668701 303.435455,443.881714 303.017761,444.094727 
	C302.601654,444.130951 302.185547,444.167206 300.990295,444.098083 
	C229.219650,443.959381 158.228104,443.898224 87.236580,443.914032 
	C71.080460,443.917633 54.923565,444.132568 38.768990,444.378967 
	C35.332687,444.431396 33.559547,443.631775 33.599247,439.691895 
	C33.793991,420.364044 33.777138,401.034088 33.815659,381.616333 
	C33.796276,381.527771 33.615452,381.547180 34.100494,381.456482 
	C42.926018,381.467865 51.266499,381.569946 59.749531,381.962463 
	C64.602448,387.447388 70.748840,388.212830 75.132050,384.150848 
	C79.116043,380.458862 79.322289,372.795624 75.545113,368.801788 
	C71.471024,364.493988 65.076050,364.881042 59.791470,369.813354 
	C50.736515,369.840149 42.160194,369.779816 33.593849,369.269226 
	C33.608971,352.677673 33.614120,336.536407 34.114120,320.302795 
	C42.720589,320.276245 50.832199,320.342041 59.017212,320.726166 
	C63.315338,327.094330 69.217697,328.615265 74.294502,324.962311 
	C78.473053,321.955719 79.609924,314.632019 76.595116,310.142029 
	C73.272659,305.193848 67.286919,304.580048 60.868191,308.681763 
	C51.459824,308.723907 42.532253,308.662964 33.604687,308.602020 
	C33.600029,292.462402 33.595371,276.322754 34.076805,259.641602 
	C42.950260,259.160309 51.337627,259.220551 59.800430,259.572144 
	C64.202438,264.901398 70.752876,265.758026 75.019455,261.843933 
	C79.057510,258.139496 79.371002,250.662109 75.660362,246.557220 
	C71.820618,242.309509 65.192062,242.609467 59.850426,247.377701 
	C50.872780,247.501587 42.368774,247.498993 33.864765,247.496399 
	C33.773434,229.391922 33.682106,211.287445 34.076942,192.641464 
	C43.022770,192.156479 51.482426,192.212982 60.065979,192.582703 
	C65.435577,197.863205 71.431580,198.251312 75.555359,193.890488 
	C79.310669,189.919312 79.099342,182.167618 75.135452,178.488785 
	C70.783699,174.449966 64.573311,175.217529 59.411301,180.474304 
	C50.507267,180.553177 42.120583,180.526016 33.689663,180.063965 
	C33.627304,173.834351 33.655437,168.039017 33.580742,162.245026 
	C33.453121,152.346146 33.261036,142.448120 33.096027,132.549728 
	C33.092434,132.333420 33.088837,132.117111 33.519115,131.491241 
	C43.049290,131.118561 52.145580,131.155426 61.381783,131.483917 
	C65.031876,137.144592 73.722473,136.206146 76.813400,132.759720 
	C80.518074,128.628967 80.486755,121.274734 76.504059,117.447823 
	C72.297867,113.406128 65.826157,114.100555 60.866127,119.200577 
	C51.591522,119.227890 42.793259,119.129295 33.996677,118.560074 
	C33.999226,99.981979 34.147812,81.872490 33.899326,63.768452 
	C33.835495,59.117611 35.305950,57.859673 39.840000,57.900196 
	C58.607155,58.067940 77.377563,57.872528 96.146774,57.810493 
	C103.476860,57.855465 110.817070,58.149738 118.133278,57.852760 
	C122.587372,57.671963 124.175163,58.830181 124.117371,63.605686 
	C123.861320,84.765747 124.011467,105.930717 123.561546,127.672302 
	C117.782883,128.272049 112.456017,128.226837 107.132004,128.329315 
	C97.517334,128.514389 92.546211,133.245636 92.496811,142.792694 
	C92.371941,166.925629 92.370064,191.060104 92.500198,215.192993 
	C92.550682,224.555069 97.368477,229.508652 106.712433,229.530823 
	C154.479996,229.644196 202.247971,229.588364 250.015808,229.570999 
	C255.775711,229.568909 260.376221,227.435379 263.059448,222.042206 
z"/>
<path fill="#FEC207" opacity="1.000000" stroke="none" 
	d="
M310.033478,354.840210 
	C312.548523,349.067047 315.063568,343.293854 318.173737,337.438324 
	C334.282043,344.542847 350.108521,335.478516 355.782104,322.723755 
	C361.999786,308.745880 369.098419,295.160187 375.784332,281.389618 
	C376.285889,280.356567 376.556885,279.211609 377.142517,277.995300 
	C377.350006,277.871948 377.801117,277.700226 378.099426,277.920715 
	C382.536072,280.137299 386.674408,282.133423 390.812775,284.129517 
	C386.036713,294.309265 381.310455,304.512756 376.472351,314.662933 
	C370.059448,328.117065 363.559113,341.529480 356.771912,355.537903 
	C353.553711,361.721283 350.660004,367.326630 347.507355,372.720795 
	C337.942352,368.108459 328.636322,363.707275 319.052765,359.125763 
	C315.861298,357.577057 312.947388,356.208618 310.033478,354.840210 
z"/>
<path fill="#2B97FE" opacity="1.000000" stroke="none" 
	d="
M347.766296,372.931946 
	C350.660004,367.326630 353.553711,361.721283 356.722809,355.875244 
	C357.032135,377.577850 357.389801,399.527344 356.971558,421.462036 
	C356.741943,433.503693 346.024048,443.595215 333.835541,444.086853 
	C324.538849,444.461823 315.216675,444.205505 305.409180,444.008118 
	C304.912537,443.786163 304.751434,443.474243 304.751434,443.474243 
	C311.432404,441.029419 316.917755,437.155640 320.716492,430.513977 
	C331.435211,428.884491 338.005188,421.827209 338.228149,411.592438 
	C338.448273,401.487488 338.209106,391.372528 338.347778,381.031006 
	C341.604889,378.177338 344.685577,375.554626 347.766296,372.931946 
z"/>
<path fill="#70DFFD" opacity="1.000000" stroke="none" 
	d="
M391.097900,283.910950 
	C386.674408,282.133423 382.536072,280.137299 378.241058,277.605347 
	C392.379150,247.417099 406.673889,217.764679 421.327759,188.135864 
	C425.941864,190.199692 430.196869,192.239944 434.451874,194.280182 
	C423.821472,216.469940 413.207031,238.667358 402.552002,260.845245 
	C398.881104,268.485992 395.108917,276.078064 391.097900,283.910950 
z"/>
<path fill="#2B95FC" opacity="1.000000" stroke="none" 
	d="
M434.674133,194.021683 
	C430.196869,192.239944 425.941864,190.199692 420.998474,187.995819 
	C412.260681,183.914642 404.211304,179.997101 396.146973,175.774719 
	C397.265991,172.989258 398.399902,170.508667 399.729126,167.774017 
	C400.792755,165.665833 401.661102,163.811676 402.529419,161.957520 
	C415.223755,167.926788 427.918091,173.896057 440.958221,180.003235 
	C439.168152,184.681839 437.032288,189.222519 434.674133,194.021683 
z"/>
<path fill="#639AD2" opacity="1.000000" stroke="none" 
	d="
M33.835037,381.704865 
	C33.777138,401.034088 33.793991,420.364044 33.599247,439.691895 
	C33.559547,443.631775 35.332687,444.431396 38.768990,444.378967 
	C54.923565,444.132568 71.080460,443.917633 87.236580,443.914032 
	C158.228104,443.898224 229.219650,443.959381 300.676758,444.096741 
	C298.866394,444.460602 296.590515,444.946564 294.314453,444.947357 
	C224.177490,444.971588 154.040543,444.948273 83.445259,445.041290 
	C66.560524,445.150269 50.134102,445.150269 32.931534,445.150269 
	C32.931534,424.299927 32.931534,403.644226 33.109562,382.339569 
	C33.437855,381.587860 33.588123,381.485077 33.794540,381.453369 
	C33.850689,381.524414 33.835041,381.704865 33.835037,381.704865 
z"/>
<path fill="#639AD2" opacity="1.000000" stroke="none" 
	d="
M304.511139,443.464966 
	C304.751434,443.474243 304.912537,443.786163 304.940674,443.959320 
	C304.430115,444.205688 303.891388,444.278900 303.185211,444.223419 
	C303.435455,443.881714 303.853149,443.668701 304.511139,443.464966 
z"/>
<path fill="#FF5551" opacity="1.000000" stroke="none" 
	d="
M451.838501,423.121277 
	C451.894592,423.306366 451.710388,423.622375 451.267151,424.053040 
	C451.204834,423.862518 451.401520,423.557373 451.838501,423.121277 
z"/>
<path fill="#DD1265" opacity="1.000000" stroke="none" 
	d="
M33.619270,320.395111 
	C33.614120,336.536407 33.608971,352.677673 33.237259,369.341797 
	C31.900124,369.965851 30.929550,370.067047 29.607271,370.098877 
	C28.150436,369.649139 27.045305,369.268829 25.940174,368.888489 
	C18.391367,353.053223 12.437959,336.637909 8.494059,319.394714 
	C15.953230,319.384644 22.957960,319.636993 30.322781,319.987335 
	C31.661671,320.188599 32.640469,320.291870 33.619270,320.395111 
z"/>
<path fill="#FFC206" opacity="1.000000" stroke="none" 
	d="
M29.958975,370.168243 
	C30.929550,370.067047 31.900124,369.965851 33.227287,369.792053 
	C42.160194,369.779816 50.736515,369.840149 60.220760,369.891235 
	C63.592365,369.917816 66.063484,369.845917 68.517921,370.015533 
	C71.965561,370.253754 74.055672,372.141174 74.039955,375.671143 
	C74.024139,379.225220 71.911057,381.006500 68.427841,381.208160 
	C65.488464,381.378387 62.547337,381.518555 59.606983,381.672028 
	C51.266499,381.569946 42.926018,381.467865 34.091713,381.411560 
	C33.597889,381.457306 33.738388,381.382324 33.738388,381.382324 
	C33.588123,381.485077 33.437855,381.587860 33.086357,381.875214 
	C31.205812,382.034332 29.526499,382.008850 27.685001,381.674133 
	C32.600044,378.560699 31.101770,374.325806 29.958975,370.168243 
z"/>
<path fill="#F8DE00" opacity="1.000000" stroke="none" 
	d="
M29.607271,370.098877 
	C31.101770,374.325806 32.600044,378.560699 27.271511,381.599304 
	C22.530092,381.887054 18.039831,381.991364 13.549905,381.978577 
	C9.455853,381.966919 5.999913,378.928558 6.022581,375.498047 
	C6.042902,372.422546 9.694357,369.166443 13.537045,369.033997 
	C17.360668,368.902283 21.192055,368.995758 25.480106,368.939484 
	C27.045305,369.268829 28.150436,369.649139 29.607271,370.098877 
z"/>
<path fill="#F8DF00" opacity="1.000000" stroke="none" 
	d="
M29.962692,319.889343 
	C22.957960,319.636993 15.953230,319.384644 8.555296,318.995544 
	C7.450788,316.837891 6.739483,314.817017 6.094570,312.418213 
	C13.126682,306.116150 21.333578,309.344025 29.583437,309.406494 
	C30.067173,313.214050 30.014933,316.551697 29.962692,319.889343 
z"/>
<path fill="#DB1368" opacity="1.000000" stroke="none" 
	d="
M32.848446,132.753723 
	C33.261036,142.448120 33.453121,152.346146 33.580742,162.245026 
	C33.655437,168.039017 33.627304,173.834351 33.317169,180.124985 
	C31.984272,180.749695 30.979628,180.878479 29.572571,180.906982 
	C23.421055,180.502487 17.671957,180.198303 11.922856,179.894119 
	C18.008615,165.452667 24.074745,151.002869 30.213276,136.583893 
	C30.771019,135.273788 31.793955,134.161728 32.848446,132.753723 
z"/>
<path fill="#F8C10C" opacity="1.000000" stroke="none" 
	d="
M61.241875,131.192291 
	C52.145580,131.155426 43.049290,131.118561 33.493271,131.167786 
	C31.639652,131.166061 30.245760,131.078247 28.629063,130.627869 
	C32.152229,125.645714 32.097908,124.208832 27.986635,119.165550 
	C29.369793,119.102463 30.752951,119.039375 32.795998,119.039940 
	C33.635593,119.079308 33.815296,119.055008 33.994999,119.030701 
	C42.793259,119.129295 51.591522,119.227890 61.272919,119.295334 
	C64.319382,119.340042 66.500298,119.268997 68.642014,119.525398 
	C72.050217,119.933418 74.254089,121.758736 74.081505,125.429489 
	C73.912453,129.024963 71.688583,130.758118 68.228355,130.970917 
	C65.903778,131.113861 63.570988,131.123184 61.241875,131.192291 
z"/>
<path fill="#F8DA02" opacity="1.000000" stroke="none" 
	d="
M11.551682,179.950409 
	C17.671957,180.198303 23.421055,180.502487 29.644365,181.299347 
	C30.068060,185.142258 30.017544,188.492523 29.967026,191.842773 
	C23.329962,191.829041 16.692900,191.815308 9.609198,191.679016 
	C4.727432,186.679459 5.378501,182.953049 11.551682,179.950409 
z"/>
<path fill="#F8DF00" opacity="1.000000" stroke="none" 
	d="
M27.524738,119.095665 
	C32.097908,124.208832 32.152229,125.645714 28.214758,130.553375 
	C22.883821,130.894409 17.733871,130.763687 12.608188,131.057007 
	C8.317637,131.302551 6.258861,128.726562 6.211412,125.322670 
	C6.161304,121.727898 8.235397,118.899124 12.629844,118.987030 
	C17.439178,119.083229 22.251707,119.019699 27.524738,119.095665 
z"/>
<path fill="#2ED5FF" opacity="1.000000" stroke="none" 
	d="
M33.996677,118.560074 
	C33.815296,119.055008 33.635593,119.079308 33.209236,118.988930 
	C32.962578,98.422783 32.962578,77.971298 32.962578,57.027946 
	C53.930019,57.027946 74.523903,57.027946 95.579193,57.135529 
	C96.040588,57.243111 96.096924,57.527420 96.121849,57.668957 
	C77.377563,57.872528 58.607155,58.067940 39.840000,57.900196 
	C35.305950,57.859673 33.835495,59.117611 33.899326,63.768452 
	C34.147812,81.872490 33.999226,99.981979 33.996677,118.560074 
z"/>
<path fill="#FFC205" opacity="1.000000" stroke="none" 
	d="
M30.323084,191.928009 
	C30.017544,188.492523 30.068060,185.142258 30.046780,181.399643 
	C30.979628,180.878479 31.984272,180.749695 33.361404,180.559875 
	C42.120583,180.526016 50.507267,180.553177 59.774506,180.618668 
	C63.290424,180.705902 65.930710,180.670746 68.559959,180.824402 
	C72.070068,181.029510 74.118835,182.957184 74.039597,186.504578 
	C73.960617,190.041000 71.802124,191.839523 68.330406,192.013077 
	C65.537010,192.152740 62.738384,192.187943 59.942081,192.269501 
	C51.482426,192.212982 43.022770,192.156479 34.066368,192.191376 
	C32.606129,192.192947 31.642633,192.103104 30.323084,191.928009 
z"/>
<path fill="#FFC206" opacity="1.000000" stroke="none" 
	d="
M33.474518,247.517654 
	C42.368774,247.498993 50.872780,247.501587 60.247108,247.525940 
	C63.441357,247.599426 65.767128,247.609558 68.088791,247.712448 
	C71.791679,247.876572 74.162247,249.638123 74.033104,253.543564 
	C73.914574,257.128143 71.637474,258.841034 68.175941,259.014038 
	C65.361549,259.154694 62.542164,259.195618 59.724991,259.280792 
	C51.337627,259.220551 42.950260,259.160309 34.066128,259.191528 
	C32.605736,259.193146 31.642113,259.103271 30.402454,258.545166 
	C30.081051,254.698593 30.035683,251.320267 29.990314,247.941956 
	C31.021635,247.807602 32.052956,247.673264 33.474518,247.517654 
z"/>
<path fill="#FFC305" opacity="1.000000" stroke="none" 
	d="
M30.322781,319.987335 
	C30.014933,316.551697 30.067173,313.214050 30.043703,309.490845 
	C30.942211,308.987885 31.916431,308.870453 33.247669,308.677490 
	C42.532253,308.662964 51.459824,308.723907 61.283737,308.778748 
	C64.155167,308.808075 66.130714,308.826782 68.105225,308.882568 
	C71.824760,308.987610 74.098900,310.796783 74.032471,314.621765 
	C73.970818,318.171509 71.769859,319.929108 68.306396,320.093994 
	C65.187622,320.242523 62.064831,320.306549 58.943810,320.407837 
	C50.832199,320.342041 42.720589,320.276245 34.114124,320.302795 
	C32.640469,320.291870 31.661671,320.188599 30.322781,319.987335 
z"/>
<path fill="#F8DB02" opacity="1.000000" stroke="none" 
	d="
M29.596552,247.824783 
	C30.035683,251.320267 30.081051,254.698593 30.046818,258.459656 
	C24.492975,258.929016 19.018829,259.022430 13.544461,259.099915 
	C9.671892,259.154694 7.056217,257.606262 6.935713,253.415482 
	C6.813370,249.160843 9.660248,247.419525 13.300570,247.317810 
	C18.593544,247.169891 23.901321,247.551682 29.596552,247.824783 
z"/>
<path fill="#FCFEFF" opacity="1.000000" stroke="none" 
	d="
M263.085205,221.621765 
	C260.376221,227.435379 255.775711,229.568909 250.015808,229.570999 
	C202.247971,229.588364 154.479996,229.644196 106.712433,229.530823 
	C97.368477,229.508652 92.550682,224.555069 92.500198,215.192993 
	C92.370064,191.060104 92.371941,166.925629 92.496811,142.792694 
	C92.546211,133.245636 97.517334,128.514389 107.132004,128.329315 
	C112.456017,128.226837 117.782883,128.272049 123.568710,128.143143 
	C151.813934,128.091690 179.598892,128.156494 207.383881,128.200195 
	C221.527405,128.222443 235.671707,128.121536 249.814316,128.238480 
	C259.050568,128.314850 264.083954,133.351807 264.098938,142.461044 
	C264.138824,166.754410 264.096771,191.048004 264.012390,215.341248 
	C264.005615,217.295624 263.424957,219.248001 263.085205,221.621765 
M198.500000,169.965805 
	C209.763123,169.965805 221.026245,169.965805 232.496521,169.965805 
	C232.496521,165.664230 232.496521,162.102676 232.496521,158.314438 
	C196.269669,158.314438 160.398804,158.314438 124.338646,158.314438 
	C124.338646,162.251434 124.338646,165.817276 124.338646,169.965744 
	C148.943726,169.965744 173.221863,169.965744 198.500000,169.965805 
M140.502197,200.002106 
	C171.093628,200.002106 201.685059,200.002106 232.501709,200.002106 
	C232.501709,195.715195 232.501709,192.153183 232.501709,188.359192 
	C196.279160,188.359192 160.403915,188.359192 124.332527,188.359192 
	C124.332527,192.282654 124.332527,195.850143 124.332527,200.002106 
	C129.597214,200.002106 134.550598,200.002106 140.502197,200.002106 
z"/>
<path fill="#FEFFFF" opacity="1.000000" stroke="none" 
	d="
M321.055267,72.432037 
	C331.179596,73.512619 337.883362,80.661873 338.217163,90.825020 
	C338.457642,98.144913 338.303772,105.478127 338.306183,112.805397 
	C338.325806,172.923904 338.340820,233.042404 338.272156,293.991394 
	C333.189148,305.002960 328.191223,315.184082 323.193329,325.365204 
	C323.133484,322.702789 323.021698,320.040375 323.021332,317.377960 
	C323.010895,239.760376 323.039276,162.142731 322.929474,84.525299 
	C322.923950,80.621773 321.739288,76.719925 321.055267,72.432037 
z"/>
<path fill="#F7DF02" opacity="1.000000" stroke="none" 
	d="
M323.132751,325.707336 
	C328.191223,315.184082 333.189148,305.002960 338.286438,294.466431 
	C343.032166,284.810730 347.678528,275.510437 352.929596,266.311462 
	C354.699646,266.972900 355.873749,267.515503 357.028839,268.095978 
	C363.666718,271.431885 370.300140,274.776794 376.935059,278.118652 
	C376.556885,279.211609 376.285889,280.356567 375.784332,281.389618 
	C369.098419,295.160187 361.999786,308.745880 355.782104,322.723755 
	C350.108521,335.478516 334.282043,344.542847 318.435089,337.203857 
	C319.758270,333.384338 321.415222,329.716919 323.132751,325.707336 
z"/>
<path fill="#2996FE" opacity="1.000000" stroke="none" 
	d="
M309.977783,355.316589 
	C312.947388,356.208618 315.861298,357.577057 318.818359,359.519745 
	C318.602844,372.060974 318.344147,384.027893 318.085449,395.994812 
	C317.439728,395.992126 316.794037,395.989441 315.630798,395.627380 
	C313.434692,394.691193 311.756134,394.114410 310.077545,393.537628 
	C310.025696,380.956085 309.973877,368.374542 309.977783,355.316589 
z"/>
<path fill="#F4FCFF" opacity="1.000000" stroke="none" 
	d="
M310.079895,393.887329 
	C311.756134,394.114410 313.434692,394.691193 315.308533,395.604675 
	C313.808624,399.514709 312.323090,403.213593 310.301422,406.591614 
	C309.618591,407.732574 307.577515,408.060669 306.157196,408.760254 
	C305.954926,407.298431 305.257233,405.682678 305.653534,404.406799 
	C306.478088,401.752228 307.882050,399.277618 309.081116,396.359924 
	C309.436951,395.406158 309.759583,394.821594 310.079895,393.887329 
z"/>
<path fill="#FEFDFE" opacity="1.000000" stroke="none" 
	d="
M377.142517,277.995300 
	C370.300140,274.776794 363.666718,271.431885 357.028839,268.095978 
	C355.873749,267.515503 354.699646,266.972900 353.258911,266.186035 
	C354.353973,262.662933 355.724457,259.366577 357.392090,255.457001 
	C359.461548,251.277466 361.257294,247.722610 363.002411,244.143066 
	C374.061798,221.458267 385.110016,198.768005 396.161926,176.079559 
	C404.211304,179.997101 412.260681,183.914642 420.639343,187.972229 
	C406.673889,217.764679 392.379150,247.417099 377.942749,277.384888 
	C377.801117,277.700226 377.350006,277.871948 377.142517,277.995300 
z"/>
<path fill="#DC1267" opacity="1.000000" stroke="none" 
	d="
M396.146973,175.774719 
	C385.110016,198.768005 374.061798,221.458267 363.002411,244.143066 
	C361.257294,247.722610 359.461548,251.277466 357.504120,255.064774 
	C357.276581,250.728928 357.234161,246.172073 357.140198,241.121445 
	C359.034973,237.981918 361.429321,235.556473 362.855988,232.655197 
	C373.343140,211.328598 383.636780,189.906860 394.615662,168.234375 
	C396.671234,167.978455 398.102539,168.003250 399.533844,168.028061 
	C398.399902,170.508667 397.265991,172.989258 396.146973,175.774719 
z"/>
<path fill="#EE5255" opacity="1.000000" stroke="none" 
	d="
M399.729126,167.774017 
	C398.102539,168.003250 396.671234,167.978455 394.817200,167.923920 
	C395.761963,164.418137 396.989624,160.776047 402.230835,161.750366 
	C401.661102,163.811676 400.792755,165.665833 399.729126,167.774017 
z"/>
<path fill="#FCFEFF" opacity="1.000000" stroke="none" 
	d="
M338.171448,381.261963 
	C338.209106,391.372528 338.448273,401.487488 338.228149,411.592438 
	C338.005188,421.827209 331.435211,428.884491 320.873962,430.244202 
	C321.315674,425.560364 322.695740,421.094299 322.896515,416.575806 
	C323.226318,409.154907 322.791260,401.700012 322.924530,393.558075 
	C328.170715,388.991821 333.171082,385.126892 338.171448,381.261963 
z"/>
<path fill="#1D3D6F" opacity="1.000000" stroke="none" 
	d="
M338.347809,381.031006 
	C333.171082,385.126892 328.170715,388.991821 322.893982,393.112732 
	C321.310394,394.228638 320.003174,395.088531 318.390747,395.971619 
	C318.344147,384.027893 318.602844,372.060974 319.095917,359.700043 
	C328.636322,363.707275 337.942352,368.108459 347.507324,372.720795 
	C344.685577,375.554626 341.604889,378.177338 338.347809,381.031006 
z"/>
<path fill="#DD1265" opacity="1.000000" stroke="none" 
	d="
M61.381783,131.483917 
	C63.570988,131.123184 65.903778,131.113861 68.228355,130.970917 
	C71.688583,130.758118 73.912453,129.024963 74.081505,125.429489 
	C74.254089,121.758736 72.050217,119.933418 68.642014,119.525398 
	C66.500298,119.268997 64.319382,119.340042 61.749264,119.169426 
	C65.826157,114.100555 72.297867,113.406128 76.504059,117.447823 
	C80.486755,121.274734 80.518074,128.628967 76.813400,132.759720 
	C73.722473,136.206146 65.031876,137.144592 61.381783,131.483917 
z"/>
<path fill="#DE1863" opacity="1.000000" stroke="none" 
	d="
M59.017212,320.726135 
	C62.064831,320.306549 65.187622,320.242523 68.306396,320.093994 
	C71.769859,319.929108 73.970818,318.171509 74.032471,314.621765 
	C74.098900,310.796783 71.824760,308.987610 68.105225,308.882568 
	C66.130714,308.826782 64.155167,308.808075 61.764538,308.675659 
	C67.286919,304.580048 73.272659,305.193848 76.595116,310.142029 
	C79.609924,314.632019 78.473053,321.955719 74.294502,324.962311 
	C69.217697,328.615265 63.315338,327.094330 59.017212,320.726135 
z"/>
<path fill="#DE1863" opacity="1.000000" stroke="none" 
	d="
M60.065979,192.582703 
	C62.738384,192.187943 65.537010,192.152740 68.330406,192.013077 
	C71.802124,191.839523 73.960617,190.041000 74.039597,186.504578 
	C74.118835,182.957184 72.070068,181.029510 68.559959,180.824402 
	C65.930710,180.670746 63.290424,180.705902 60.291855,180.512634 
	C64.573311,175.217529 70.783699,174.449966 75.135452,178.488785 
	C79.099342,182.167618 79.310669,189.919312 75.555359,193.890488 
	C71.431580,198.251312 65.435577,197.863205 60.065979,192.582703 
z"/>
<path fill="#DE1863" opacity="1.000000" stroke="none" 
	d="
M59.749531,381.962463 
	C62.547337,381.518555 65.488464,381.378387 68.427841,381.208160 
	C71.911057,381.006500 74.024139,379.225220 74.039955,375.671143 
	C74.055672,372.141174 71.965561,370.253754 68.517921,370.015533 
	C66.063484,369.845917 63.592365,369.917816 60.699398,369.804077 
	C65.076050,364.881042 71.471024,364.493988 75.545113,368.801788 
	C79.322289,372.795624 79.116043,380.458862 75.132050,384.150848 
	C70.748840,388.212830 64.602448,387.447388 59.749531,381.962463 
z"/>
<path fill="#E01661" opacity="1.000000" stroke="none" 
	d="
M59.800430,259.572144 
	C62.542164,259.195618 65.361549,259.154694 68.175941,259.014038 
	C71.637474,258.841034 73.914574,257.128143 74.033104,253.543564 
	C74.162247,249.638123 71.791679,247.876572 68.088791,247.712448 
	C65.767128,247.609558 63.441357,247.599426 60.720741,247.399445 
	C65.192062,242.609467 71.820618,242.309509 75.660362,246.557220 
	C79.371002,250.662109 79.057510,258.139496 75.019455,261.843933 
	C70.752876,265.758026 64.202438,264.901398 59.800430,259.572144 
z"/>
<path fill="#DE1863" opacity="1.000000" stroke="none" 
	d="
M33.794540,381.453369 
	C33.738388,381.382324 33.597889,381.457306 33.606670,381.502258 
	C33.615452,381.547180 33.796276,381.527771 33.815659,381.616333 
	C33.835041,381.704865 33.850689,381.524414 33.794540,381.453369 
z"/>
<path fill="#6FE1FF" opacity="1.000000" stroke="none" 
	d="
M198.000000,169.965775 
	C173.221863,169.965744 148.943726,169.965744 124.338646,169.965744 
	C124.338646,165.817276 124.338646,162.251434 124.338646,158.314438 
	C160.398804,158.314438 196.269669,158.314438 232.496521,158.314438 
	C232.496521,162.102676 232.496521,165.664230 232.496521,169.965805 
	C221.026245,169.965805 209.763123,169.965805 198.000000,169.965775 
z"/>
<path fill="#6EE1FF" opacity="1.000000" stroke="none" 
	d="
M140.003082,200.002106 
	C134.550598,200.002106 129.597214,200.002106 124.332527,200.002106 
	C124.332527,195.850143 124.332527,192.282654 124.332527,188.359192 
	C160.403915,188.359192 196.279160,188.359192 232.501709,188.359192 
	C232.501709,192.153183 232.501709,195.715195 232.501709,200.002106 
	C201.685059,200.002106 171.093628,200.002106 140.003082,200.002106 
z"/>
</svg>